<svg xmlns="http://www.w3.org/2000/svg" viewBox="0 0 48 48" fill="none">
  <circle cx="24" cy="24" r="22" fill="#2DD4A8"/>
  <path d="M16 19.5 C16 18.1 17.1 17 18.5 17 L20 17 C20.6 17 21 17.4 21 18 L21 20 C21 20.6 20.6 21 20 21 L19 21 C18.5 22 18.5 23.5 19.5 24.5 L22.5 27.5 C23.5 28.5 25 28.5 26 28 L26 27 C26 26.4 26.4 26 27 26 L29 26 C29.6 26 30 26.4 30 27 L30 28.5 C30 29.9 28.9 31 27.5 31 L26 31 C21.6 31 16 25.4 16 21 Z" fill="white"/>
  <path d="M18 25 L21 25 L22 22 L24 28 L26 23 L27 25 L30 25" stroke="white" stroke-width="1.4" stroke-linecap="round" stroke-linejoin="round" fill="none" opacity="0.4"/>
</svg>
