<svg xmlns="http://www.w3.org/2000/svg" viewBox="0 0 200 48" fill="none">
  <circle cx="22" cy="24" r="20" fill="#2DD4A8"/>
  <path d="M14 18.5 C14 17.1 15.1 16 16.5 16 L18 16 C18.6 16 19 16.4 19 17 L19 19 C19 19.6 18.6 20 18 20 L17 20 C16.5 21 16.5 22.5 17.5 23.5 L20.5 26.5 C21.5 27.5 23 27.5 24 27 L24 26 C24 25.4 24.4 25 25 25 L27 25 C27.6 25 28 25.4 28 26 L28 27.5 C28 28.9 26.9 30 25.5 30 L24 30 C19.6 30 14 24.4 14 20 Z" fill="white"/>
  <path d="M16 24 L19 24 L20 21 L22 27 L24 22 L25 24 L28 24" stroke="white" stroke-width="1.2" stroke-linecap="round" stroke-linejoin="round" fill="none" opacity="0.4"/>
  <text x="48" y="33" font-family="system-ui, -apple-system, sans-serif" font-size="22" font-weight="800" fill="white">Prime</text>
  <text x="109" y="33" font-family="system-ui, -apple-system, sans-serif" font-size="22" font-weight="800" fill="#2DD4A8">Reception</text>
</svg>
